<?xml version="1.0" encoding="UTF-8" standalone="no"?>
<svg
   xmlns:dc="http://purl.org/dc/elements/1.1/"
   xmlns:cc="http://creativecommons.org/ns#"
   xmlns:rdf="http://www.w3.org/1999/02/22-rdf-syntax-ns#"
   xmlns:svg="http://www.w3.org/2000/svg"
   xmlns="http://www.w3.org/2000/svg"
   viewBox="0 0 0.28259103 0.28259023"
   width="4.5214562"
   height="4.5214438"
   version="1.1"
   id="svg4"
   style="fill:#000000">
  <metadata
     id="metadata10">
    <rdf:RDF>
      <cc:Work
         rdf:about="">
        <dc:format>image/svg+xml</dc:format>
        <dc:type
           rdf:resource="http://purl.org/dc/dcmitype/StillImage" />
        <dc:title></dc:title>
      </cc:Work>
    </rdf:RDF>
  </metadata>
  <defs
     id="defs8" />
  <path
     d="M 0.1176795,0 C 0.0528265,0 0,0.052826 0,0.1176795 c 0,0.064853 0.052826,0.1176792 0.1176795,0.1176792 0.028202,0 0.054102,-0.010014 0.0744,-0.026639 l 0.070263,0.070263 a 0.01176911,0.01176911 0 1 0 0.016641,-0.016641 l -0.070264,-0.070262 c 0.016624,-0.020299 0.026639,-0.046198 0.026639,-0.0744 C 0.2353585,0.0528267 0.1825325,2e-7 0.1176795,0 Z m 0,0.023537 c 0.052133,0 0.094143,0.04201 0.094143,0.094143 0,0.052133 -0.04201,0.094143 -0.094143,0.094143 -0.052134,0 -0.094143,-0.04201 -0.094143,-0.094143 0,-0.052134 0.04201,-0.094143 0.094143,-0.094143 z"
     id="path2"
     style="stroke-width:0.01176793" />
</svg>
